<svg xmlns="http://www.w3.org/2000/svg" width="1280" height="820" viewBox="0 0 1280 820" role="img" aria-labelledby="title desc">
  <title id="title">SQL Viewer screenshot</title>
  <desc id="desc">Read-only SQLite viewer with metadata pills, object list, schema, source SQL, preview rows, and query runner.</desc>
  <rect width="1280" height="820" fill="#161a1f"/>
  <rect x="40" y="40" width="1200" height="740" rx="14" fill="#1f242a" stroke="#3b444e"/>
  <text x="72" y="92" fill="#f7fafc" font-family="Inter, Arial, sans-serif" font-size="26" font-weight="760">events.sqlite</text>
  <text x="72" y="122" fill="#aab4bf" font-family="Menlo, Consolas, monospace" font-size="15">20_files/2026-06/events.sqlite</text>
  <rect x="880" y="70" width="208" height="38" rx="8" fill="#121820" stroke="#3b444e"/>
  <text x="918" y="95" fill="#aab4bf" font-family="Inter, Arial, sans-serif" font-size="16">Filter</text>
  <rect x="1104" y="70" width="44" height="38" rx="8" fill="#28313a" stroke="#4a5562"/>
  <text x="1119" y="95" fill="#f7fafc" font-family="Inter, Arial, sans-serif" font-size="18">↻</text>
  <line x1="72" y1="146" x2="1208" y2="146" stroke="#3b444e"/>
  <g font-family="Menlo, Consolas, monospace" font-size="14">
    <rect x="72" y="170" width="86" height="28" rx="14" fill="#252c34" stroke="#46515c"/>
    <text x="92" y="189" fill="#e7edf4">2 tables</text>
    <rect x="168" y="170" width="74" height="28" rx="14" fill="#252c34" stroke="#46515c"/>
    <text x="188" y="189" fill="#e7edf4">1 view</text>
    <rect x="252" y="170" width="82" height="28" rx="14" fill="#252c34" stroke="#46515c"/>
    <text x="272" y="189" fill="#e7edf4">1 index</text>
    <rect x="344" y="170" width="120" height="28" rx="14" fill="#252c34" stroke="#46515c"/>
    <text x="364" y="189" fill="#e7edf4">page size 4096</text>
  </g>
  <rect x="72" y="224" width="260" height="492" rx="8" fill="#151b22" stroke="#3b444e"/>
  <text x="96" y="258" fill="#f7fafc" font-family="Inter, Arial, sans-serif" font-size="16" font-weight="760">Objects</text>
  <g font-family="Inter, Arial, sans-serif" font-size="14" font-weight="700">
    <rect x="96" y="282" width="212" height="46" rx="8" fill="#17385d"/>
    <text x="112" y="310" fill="#9bd2ff">table</text><text x="170" y="310" fill="#f7fafc">events</text>
    <rect x="96" y="340" width="212" height="46" rx="8" fill="#18222b" stroke="#33404b"/>
    <text x="112" y="368" fill="#9bd2ff">table</text><text x="170" y="368" fill="#f7fafc">people</text>
    <rect x="96" y="398" width="212" height="46" rx="8" fill="#162b23" stroke="#33404b"/>
    <text x="112" y="426" fill="#71e0a3">view</text><text x="160" y="426" fill="#f7fafc">recent_events</text>
  </g>
  <g transform="translate(360 224)">
    <rect width="848" height="104" rx="8" fill="#151b22" stroke="#3b444e"/>
    <text x="24" y="34" fill="#f7fafc" font-family="Inter, Arial, sans-serif" font-size="18" font-weight="760">events</text>
    <text x="24" y="62" fill="#aab4bf" font-family="Inter, Arial, sans-serif" font-size="13">table preview capped at 100 rows</text>
    <text x="24" y="88" fill="#aab4bf" font-family="Menlo, Consolas, monospace" font-size="13">id INTEGER PK | label TEXT | created_at TEXT | duration_ms INTEGER</text>
    <rect y="126" width="848" height="96" rx="8" fill="#151b22" stroke="#3b444e"/>
    <text x="24" y="158" fill="#f7fafc" font-family="Inter, Arial, sans-serif" font-size="16" font-weight="760">Source</text>
    <text x="24" y="190" fill="#f1e276" font-family="Menlo, Consolas, monospace" font-size="14">CREATE TABLE events (id INTEGER PRIMARY KEY, label TEXT, created_at TEXT);</text>
    <rect y="244" width="848" height="190" rx="8" fill="#0c1117" stroke="#3b444e"/>
    <rect width="848" height="38" y="244" rx="8" fill="#28313a"/>
    <g fill="#dbe4ec" font-family="Menlo, Consolas, monospace" font-size="14" font-weight="700">
      <text x="24" y="268">id</text><text x="116" y="268">label</text><text x="288" y="268">created_at</text><text x="520" y="268">duration_ms</text>
    </g>
    <g fill="#f1e276" font-family="Menlo, Consolas, monospace" font-size="14">
      <text x="24" y="316">1</text><text x="116" y="316">capture</text><text x="288" y="316">2026-06-08</text><text x="520" y="316">144</text>
      <text x="24" y="354">2</text><text x="116" y="354">review</text><text x="288" y="354">2026-06-08</text><text x="520" y="354">93</text>
      <text x="24" y="392">3</text><text x="116" y="392">sync</text><text x="288" y="392">2026-06-08</text><text x="520" y="392">211</text>
    </g>
    <rect y="456" width="848" height="136" rx="8" fill="#151b22" stroke="#3b444e"/>
    <text x="24" y="490" fill="#f7fafc" font-family="Inter, Arial, sans-serif" font-size="16" font-weight="760">Read-only query</text>
    <rect x="24" y="512" width="648" height="52" rx="6" fill="#0c1117" stroke="#3b444e"/>
    <text x="42" y="544" fill="#f1e276" font-family="Menlo, Consolas, monospace" font-size="14">SELECT * FROM events LIMIT 20</text>
    <rect x="690" y="512" width="110" height="34" rx="7" fill="#2f6f4d"/>
    <text x="714" y="535" fill="#f7fafc" font-family="Inter, Arial, sans-serif" font-size="14" font-weight="760">Allowed</text>
  </g>
</svg>
